<?xml version="1.0" encoding="UTF-8" standalone="no"?>
<svg xmlns="http://www.w3.org/2000/svg" height="168px" width="168px" version="1.1" viewBox="0 0 168 168">
 <path fill="#6C5CE7" d="m84 0c-46.392 0-84 37.608-84 84s37.608 84 84 84 84-37.608 84-84-37.608-84-84-84zm0 34.965c9.66 0 17.492 7.831 17.492 17.492v27.986c0 9.66-7.832 17.492-17.492 17.492s-17.492-7.832-17.492-17.492v-27.986c0-9.661 7.832-17.492 17.492-17.492zm-31.486 41.981h10.495c0 11.59 9.4 20.99 20.991 20.99s20.991-9.4 20.991-20.99h10.495c0 15.653-11.457 28.633-26.238 30.997v18.976h-10.496v-18.976c-14.781-2.364-26.238-15.344-26.238-30.997z"/>
</svg>
